<svg viewBox="0 0 50 50" xmlns="http://www.w3.org/2000/svg"><path d="m12 39h32v-37h-32c-3.309 0-6 2.691-6 6v34.417c0 3.079 2.691 5.583 6 5.583h32v-2h-32c-2.168 0-4-1.641-4-3.583 0-1.916 1.757-3.417 4-3.417zm24.709-7.294c-.195.196-.452.294-.709.294-.255 0-.511-.097-.705-.292l-6.523-6.494-1.76 1.76-1.846-1.879 3.153-3.153 8.387 8.349c.391.39.393 1.023.003 1.415zm-20.423-21.699 7.733 7.781-3.044 3.044-4.745-4.832c-1.662-1.662-1.636-4.363.056-5.993zm-1.957 20.286 13.024-13.024c-.034-.085-.083-.163-.107-.252-.399-1.509-.322-3.426 1.045-4.777 2.031-2.094 5.497-2.989 6.998-1.505 1.501 1.571.596 4.909-1.435 6.916-1.444 1.428-3.298 1.545-4.8 1.16-.104-.027-.196-.081-.294-.122l-14.017 13.018c-.195.195.549.293.293.293s-.512-.098-.707-.293c-.391-.391-.391-1.023 0-1.414z"/></svg>